<svg width="580" height="400" xmlns="http://www.w3.org/2000/svg">
 <!-- Created with Method Draw - http://github.com/duopixel/Method-Draw/ -->
 <defs>
  <filter height="200%" width="200%" y="-50%" x="-50%" id="svg_1_blur">
   <feGaussianBlur stdDeviation="0" in="SourceGraphic"/>
  </filter>
 </defs>
 <g>
  <title>background</title>
  <rect fill="#ffffff" id="canvas_background" height="402" width="582" y="-1" x="-1"/>
  <g display="none" overflow="visible" y="0" x="0" height="100%" width="100%" id="canvasGrid">
   <rect fill="url(#gridpattern)" stroke-width="0" y="0" x="0" height="100%" width="100%"/>
  </g>
 </g>
 <g>
  <title>Layer 1</title>
  <path filter="url(#svg_1_blur)" opacity="0.32" stroke="#0f0f00" id="svg_1" d="m72.39645,286.423605l435.80093,0.11072l-14.14184,13.90792l-407.35029,-0.33214l-14.30882,-13.6865l0.00002,0zm2.99487,-185.00694l429.97756,-0.33214l12.47842,14.26741l-455.10098,0.11071l12.645,-14.04598zm-42.43354,92.70448l514.51165,-0.33214l-0.66507,14.26742l-513.51382,-0.22142l-0.33276,-13.71386zm514.93756,1.3233c0,94.45365 -115.49635,171.29266 -257.48388,171.29266c-141.92619,0 -257.40101,-76.8529 -257.40101,-171.29266c0,-94.44023 115.49569,-171.27922 257.40101,-171.27922c141.98755,-0.01388 257.48388,76.83899 257.48388,171.27922zm-257.46366,-185.00695c-153.25553,0 -277.96867,82.98634 -277.96867,184.99303c0,102.0206 124.71316,185.00693 277.96867,185.00693c153.33897,0 278.03129,-82.98633 278.03129,-185.00693c0,-102.00669 -124.6923,-184.99303 -278.03129,-184.99303zm78.0058,185.00695c0,100.93159 -41.09488,171.29266 -78.0058,171.29266c-36.86916,0 -77.9634,-70.36107 -77.9634,-171.29266c0,-100.95938 41.07398,-171.27922 77.9634,-171.27922c36.89008,-0.01388 78.0058,70.31984 78.0058,171.27922zm-78.0058,-185.00695c-64.02343,0 -98.57279,95.32182 -98.57279,184.99303c0,89.69859 34.54936,185.00693 98.57279,185.00693c64.02408,0 98.63605,-95.3222 98.63605,-185.00693c-0.02087,-89.67121 -34.61197,-184.99303 -98.63605,-184.99303zm182.68923,185.00695c0,94.45365 -81.98239,171.29266 -182.68923,171.29266c-100.68592,0 -182.6266,-76.8529 -182.6266,-171.29266c0,-94.44023 81.94068,-171.27922 182.6266,-171.27922c100.70684,-0.01388 182.68923,76.83899 182.68923,171.27922zm-182.68923,-185.00695c-112.03678,0 -203.23598,82.98634 -203.23598,184.99303c0,102.0206 91.1992,185.00693 203.23598,185.00693c112.07851,0 203.25748,-82.98633 203.25748,-185.00693c0,-102.00669 -91.17897,-184.99303 -203.25748,-184.99303z" stroke-width="1.5" fill="#fff"/>
  <path id="svg_2" d="m462.633931,121.953175c0,-9.299561 8.040312,-16.832215 17.966596,-16.832215c9.926298,0 17.966581,7.532654 17.966581,16.832215c0,9.299561 -8.040283,16.832215 -17.966581,16.832215c-9.926298,0 -17.966596,-7.532654 -17.966596,-16.832215zm60.406762,47.645917l0,-8.500752c0,-8.944038 -7.734902,-16.195754 -17.287242,-16.195754l-50.361507,0c-9.546808,0 -17.287234,7.251716 -17.287234,16.195754l0,8.500752c-0.016694,0.192951 -0.02784,0.391142 -0.02784,0.59192l0,48.962772c0,3.804478 3.289913,6.886643 7.35078,6.886643c4.055312,0 7.353542,-3.082179 7.353542,-6.886643l0,-48.237851l4.929266,0l0,55.129704l0.03618,0l0,77.896613c0,5.063929 4.389323,9.178705 9.800097,9.178705c5.413566,0 9.800097,-4.109559 9.800097,-9.178705l0,-77.896613l6.465672,0l0,77.896613c0,5.063929 4.392041,9.178705 9.800082,9.178705c5.413544,0 9.800074,-4.109559 9.800074,-9.178705l0,-77.896613l0.030618,0l0,-55.129704l4.929274,0l0,48.235228c0,3.804485 3.298223,6.889259 7.35355,6.889259c4.060919,0 7.35078,-3.084774 7.35078,-6.889259l0,-48.962758c-0.002762,-0.203387 -0.019486,-0.39636 -0.036187,-0.589318l0,0.000007z" stroke-width="1.5" stroke="#0f0f0c" fill="#070006"/>
  <path id="svg_3" d="m86.885574,112.167065c0,-9.746656 9.648374,-17.641457 21.559912,-17.641457c11.911556,0 21.559895,7.894801 21.559895,17.641457c0,9.746656 -9.648338,17.641457 -21.559895,17.641457c-11.911556,0 -21.559912,-7.894801 -21.559912,-17.641457zm72.488106,49.936588l0,-8.909443c0,-9.374041 -9.281881,-16.974397 -20.744688,-16.974397l-60.433802,0c-11.456168,0 -20.744679,7.600357 -20.744679,16.974397l0,8.909443c-0.020033,0.202228 -0.033409,0.409947 -0.033409,0.620378l0,51.316754c0,3.987385 3.947895,7.217732 8.820935,7.217732c4.866374,0 8.82425,-3.230361 8.82425,-7.217732l0,-50.556981l5.915119,0l0,57.780174l0.043416,0l0,81.641647c0,5.307387 5.267187,9.61999 11.760115,9.61999c6.496278,0 11.760115,-4.307134 11.760115,-9.61999l0,-81.641647l7.758805,0l0,81.641647c0,5.307387 5.270448,9.61999 11.760097,9.61999c6.496252,0 11.760088,-4.307134 11.760088,-9.61999l0,-81.641647l0.036741,0l0,-57.780174l5.915128,0l0,50.554232c0,3.987393 3.957867,7.220474 8.824259,7.220474c4.873102,0 8.820935,-3.233081 8.820935,-7.220474l0,-51.316739c-0.003315,-0.213166 -0.023383,-0.415415 -0.043425,-0.617651l0,0.000007z" stroke-width="1.5" stroke="#0f0f0c" fill="#070006"/>
  <line stroke-linecap="null" stroke-linejoin="null" id="svg_6" y2="288.005002" x2="282.5" y1="112.997496" x1="220.5" stroke-width="1.5" fill="none"/>
  <line opacity="0.91" stroke-linecap="null" stroke-linejoin="null" id="svg_7" y2="118" x2="356.5" y1="287" x1="281.5" stroke-width="1.5" fill="none"/>
  <line stroke-linecap="null" stroke-linejoin="null" id="svg_12" y2="119" x2="356.5" y1="194" x1="280.5" stroke-width="1.5" fill="none"/>
  <line stroke-linecap="null" stroke-linejoin="null" id="svg_13" y2="196" x2="383.5" y1="194" x1="383.5" stroke-opacity="null" stroke-width="1.5" stroke="#000" fill="none"/>
  <path id="svg_17" d="m283.49184,363.20456c83.10416,-251.31501 5.00627,0.00001 81.96623,-247.05898l-146.04655,-2.25352z" stroke-width="1.5" fill="#0f0f00"/>
 </g>
</svg>